<svg width="33" height="33" viewBox="0 0 33 33" fill="none" xmlns="http://www.w3.org/2000/svg">
<path d="M15.55 22C16.3 22 16.96 21.59 17.3 20.97L20.88 14.48C21.25 13.82 20.77 13 20.01 13H5.21L4.27 11H1V13H3L6.6 20.59L5.25 23.03C4.52 24.37 5.48 26 7 26H19V24H7L8.1 22H15.55ZM6.16 15H18.31L15.55 20H8.53L6.16 15ZM7 27C5.9 27 5.01 27.9 5.01 29C5.01 30.1 5.9 31 7 31C8.1 31 9 30.1 9 29C9 27.9 8.1 27 7 27ZM17 27C15.9 27 15.01 27.9 15.01 29C15.01 30.1 15.9 31 17 31C18.1 31 19 30.1 19 29C19 27.9 18.1 27 17 27Z" fill="#323232"/>
<circle cx="23.5" cy="9.5" r="9.5" fill="#776644"/>
<path d="M20.444 14V13.184L23.864 9.884C24.168 9.596 24.392 9.344 24.536 9.128C24.688 8.904 24.788 8.7 24.836 8.516C24.892 8.324 24.92 8.14 24.92 7.964C24.92 7.532 24.768 7.192 24.464 6.944C24.16 6.696 23.716 6.572 23.132 6.572C22.684 6.572 22.28 6.648 21.92 6.8C21.56 6.944 21.248 7.172 20.984 7.484L20.168 6.776C20.488 6.368 20.916 6.056 21.452 5.84C21.996 5.616 22.592 5.504 23.24 5.504C23.824 5.504 24.332 5.6 24.764 5.792C25.196 5.976 25.528 6.244 25.76 6.596C26 6.948 26.12 7.364 26.12 7.844C26.12 8.116 26.084 8.384 26.012 8.648C25.94 8.912 25.804 9.192 25.604 9.488C25.404 9.784 25.116 10.116 24.74 10.484L21.692 13.424L21.404 12.956H26.48V14H20.444Z" fill="white"/>
</svg>
