<svg width="66" height="66" viewBox="0 0 66 66" fill="none" xmlns="http://www.w3.org/2000/svg">
<circle cx="33" cy="33" r="33" fill="#EBEBEB"/>
<g clip-path="url(#clip0_1_1275)">
<path d="M43.4559 35.229C43.2269 34.6873 42.9561 34.1642 42.6459 33.6645V24.6225C42.6488 23.3586 42.401 22.1066 41.917 20.939C41.4329 19.7713 40.7222 18.7113 39.8259 17.82C38.9349 16.9239 37.8751 16.2132 36.7077 15.7292C35.5404 15.2451 34.2886 14.9973 33.0249 15H33.0219C31.7579 14.9965 30.5057 15.2437 29.3378 15.7272C28.1699 16.2107 27.1095 16.921 26.2179 17.817C25.3212 18.7086 24.6103 19.7692 24.1263 20.9373C23.6422 22.1055 23.3947 23.3581 23.3979 24.6225V25.938H27.2529V24.6225C27.2529 23.0835 27.8529 21.6345 28.9434 20.5425C29.4782 20.0055 30.1141 19.5799 30.8144 19.2903C31.5148 19.0006 32.2656 18.8527 33.0234 18.855C34.5527 18.857 36.0189 19.4652 37.1005 20.5463C38.1822 21.6274 38.7911 23.0932 38.7939 24.6225V29.8845C37.0414 28.8414 35.0389 28.293 32.9994 28.2975C31.5087 28.2954 30.0323 28.588 28.6551 29.1584C27.2779 29.7289 26.027 30.566 24.9744 31.6215C23.9188 32.6741 23.0817 33.925 22.5113 35.3022C21.9408 36.6794 21.6483 38.1558 21.6504 39.6465C21.6481 41.1371 21.9404 42.6135 22.5106 43.9907C23.0808 45.3679 23.9176 46.6188 24.9729 47.6715C26.0253 48.7281 27.2762 49.5661 28.6537 50.1374C30.0313 50.7086 31.5081 51.0018 32.9994 51C34.4901 51.0022 35.9665 50.7096 37.3437 50.1392C38.721 49.5687 39.9718 48.7316 41.0244 47.676C42.08 46.6235 42.9171 45.3726 43.4875 43.9954C44.058 42.6181 44.3505 41.1417 44.3484 39.651C44.3484 38.1195 44.0484 36.633 43.4559 35.232V35.229ZM32.9994 47.142C31.0125 47.1397 29.1076 46.3494 27.7024 44.9446C26.2973 43.5397 25.5067 41.635 25.5039 39.648C25.5063 37.6608 26.2968 35.7557 27.7019 34.3505C29.1071 32.9454 31.0122 32.1549 32.9994 32.1525C34.9867 32.1545 36.8921 32.9449 38.2973 34.3501C39.7026 35.7554 40.4929 37.6607 40.4949 39.648C40.4925 41.6351 39.702 43.5401 38.2968 44.945C36.8916 46.3499 34.9865 47.1401 32.9994 47.142ZM36.2169 39.6825C36.2169 40.5259 35.8819 41.3348 35.2855 41.9311C34.6891 42.5275 33.8803 42.8625 33.0369 42.8625C32.1935 42.8625 31.3847 42.5275 30.7883 41.9311C30.1919 41.3348 29.8569 40.5259 29.8569 39.6825C29.8569 38.8391 30.1919 38.0303 30.7883 37.4339C31.3847 36.8376 32.1935 36.5025 33.0369 36.5025C33.8803 36.5025 34.6891 36.8376 35.2855 37.4339C35.8819 38.0303 36.2169 38.8391 36.2169 39.6825Z" fill="#BDBDBD"/>
</g>
<defs>
<clipPath id="clip0_1_1275">
<rect width="36" height="36" fill="white" transform="translate(15 15)"/>
</clipPath>
</defs>
</svg>
