<svg width="15" height="15" viewBox="0 0 15 15" fill="none" xmlns="http://www.w3.org/2000/svg">
<path d="M10.3082 9.51282H9.65996L9.43022 9.29128C10.2343 8.3559 10.7184 7.14154 10.7184 5.82052C10.7184 2.87488 8.33073 0.487183 5.38509 0.487183C2.43945 0.487183 0.0517578 2.87488 0.0517578 5.82052C0.0517578 8.76616 2.43945 11.1538 5.38509 11.1538C6.70612 11.1538 7.92048 10.6697 8.85586 9.86564L9.0774 10.0954V10.7436L13.18 14.838L14.4025 13.6154L10.3082 9.51282ZM5.38509 9.51282C3.34201 9.51282 1.69278 7.86359 1.69278 5.82052C1.69278 3.77744 3.34201 2.12821 5.38509 2.12821C7.42817 2.12821 9.0774 3.77744 9.0774 5.82052C9.0774 7.86359 7.42817 9.51282 5.38509 9.51282Z" fill="#323232"/>
</svg>
